# xmcd
#
# Track frame offsets:
# 150
# 13962
# 29581
# 44311
# 61318
#
# Disc length: 1063 seconds
#
# Revision: 0
# Processed by: cddbd v1.5.2PL0 Copyright (c) Steve Scherf et al.
# Submitted via: Audion 3.0.2 (http://www.panic.com/audion/)
#
DISCID=3f042505
DTITLE=April Draper - Christmas Songs
DYEAR=1900
DGENRE=
TTITLE0=I'll Be Home For Christmas
TTITLE1=What Child Is This
TTITLE2=Beautiful Star Of Bethlehem
TTITLE3=All I Want For Christmas Is You
TTITLE4=Have Yourself A Merry Little Christmas
EXTD=
EXTT0=
EXTT1=
EXTT2=
EXTT3=
EXTT4=
PLAYORDER=
